<svg width="32" height="32" viewBox="0 0 32 32" fill="none" xmlns="http://www.w3.org/2000/svg">
  <rect width="32" height="32" rx="6" fill="#0A66C2"/>
  <path
    d="M9.333 13H12.333V22H9.333V13ZM10.833 10.667C9.907 10.667 9.167 9.92 9.167 9C9.167 8.08 9.907 7.333 10.833 7.333C11.753 7.333 12.5 8.08 12.5 9C12.5 9.92 11.753 10.667 10.833 10.667Z"
    fill="white"
  />
  <path
    d="M14.333 13H17.167V14.333H17.207C17.6 13.587 18.54 12.8 19.967 12.8C22.7 12.8 23.167 14.6 23.167 16.9V22H20.167V17.6C20.167 16.533 20.147 15.167 18.767 15.167C17.367 15.167 17.167 16.333 17.167 17.533V22H14.333V13Z"
    fill="white"
  />
</svg>


